<svg width="130" height="40" viewBox="0 0 130 40" fill="none" xmlns="http://www.w3.org/2000/svg">
<path d="M1.75345 15.5033C1.75345 15.2651 1.74987 15.065 1.75345 14.7885C1.75217 14.339 1.75622 13.9365 1.75343 13.5341C1.75403 13.2674 1.75332 13.0006 1.75343 12.7064C1.75293 12.6789 1.75343 12.6812 1.75343 12.6812C1.75418 12.6449 1.7522 12.57 1.75345 12.5018C1.89711 12.4034 2.0053 12.2996 2.11925 12.2269C2.45544 12.0122 2.82461 11.84 3.15808 11.6228C3.27084 11.556 3.39034 11.4902 3.41108 11.4893C3.84691 11.266 4.08029 11.1486 4.50519 10.9468C5.42263 10.5111 6.26847 10.1026 7.2002 9.69871C8.92975 8.94906 10.7763 8.39 12.6152 7.99166C14.3038 7.62586 16.0458 7.445 17.774 7.42211C18.8982 7.40721 19.9975 7.40475 21.1174 7.48929C22.0853 7.56236 23.0597 7.73503 24.0147 7.91831C25.5025 8.20385 26.929 8.61126 28.3429 9.16128C28.511 9.22668 28.5388 9.32898 28.4796 9.503C28.0411 10.7923 27.6114 12.0846 27.1791 13.376C27.1167 13.5625 27.055 13.7492 26.9805 13.9734C27.0876 13.9408 27.1401 13.9266 27.1914 13.909C28.3981 13.4947 29.6036 13.0769 30.8116 12.6662C32.4069 12.1238 34.0107 11.5545 35.6081 11.0183C35.7958 10.9553 36.1152 10.8347 36.3071 10.7844C36.3065 11.3091 36.3058 11.9446 36.3064 12.4693C36.3131 19.1365 36.2843 25.8054 36.2946 32.4725C36.2968 33.9457 36.054 35.3518 35.2689 36.6136C33.9687 38.7031 32.0717 39.8775 29.61 39.919C25.8293 39.9827 22.0467 39.9368 18.2649 39.9367C18.2408 39.9367 18.2166 39.9272 18.1777 39.919C23.0369 35.695 25.638 30.436 25.598 23.9106C26.0653 24.0434 26.5143 24.1664 26.9604 24.2994C27.4004 24.4305 27.8374 24.5718 28.283 24.7109C28.0868 24.1343 26.2879 21.5591 24.9489 20.1109C23.6593 18.7161 22.3001 17.4049 20.6836 16.3893C20.7069 17.0285 20.7629 17.6515 20.7462 18.2726C20.6869 20.4863 20.0008 22.5163 18.8714 24.4044C17.1642 27.2587 14.7744 29.4064 11.9237 31.0684C10.3566 31.982 8.69805 32.6685 6.90399 32.9889C5.33705 33.2688 3.77797 33.3129 2.25689 32.736C0.754692 32.1662 -0.0660905 30.9602 0.00416782 29.4368C0.0406549 28.6457 0.283815 27.9135 0.660171 27.2243C1.25412 26.1365 2.03051 25.1855 2.89627 24.3065C3.25264 23.9446 3.63546 23.6088 4.03258 23.238C4.088 23.1807 4.11708 23.1466 4.14617 23.1124C4.21058 23.0252 4.21674 23.0079 4.11133 23.0789L3.9776 23.1845C3.30998 23.751 2.64313 24.3184 1.97344 24.8824C1.91296 24.9333 1.81103 25.0251 1.75343 25.0752C1.74682 24.5874 1.75765 24.0261 1.75343 23.5771C1.75528 20.9418 1.75002 18.3066 1.75345 15.6348C1.752 15.5734 1.75345 15.5688 1.75345 15.5358V15.5033Z" fill="#143373"/>
<path d="M8.90582 37.3387C15.0618 36.0434 20.4661 31.1432 22.77 25.9999C23.1307 25.1948 23.3984 24.348 23.7157 23.5029C23.9529 23.5503 24.2214 23.604 24.5417 23.668C24.4311 24.1998 24.3422 24.7248 24.2116 25.2391C23.2985 28.8339 21.4508 31.8806 18.8155 34.4747C16.5302 36.7242 13.8945 38.3944 10.8351 39.3676C9.41052 39.8207 7.9531 40.1025 6.44269 39.9655C4.66509 39.8042 3.20575 39.0461 2.11338 37.6283C1.79345 37.213 1.50654 36.7672 1.25157 36.3073C1.21027 36.2327 1.16249 36.1264 1.11719 35.9838C1.20185 36.0343 1.23801 36.0727 1.26224 36.0889C2.5645 37.1897 4.12762 37.528 5.77018 37.6163C6.81867 37.6727 7.85554 37.5525 8.90582 37.3387Z" fill="#183572"/>
<path d="M12.2871 4.87114C11.7329 5.14988 11.1372 5.4328 10.5582 5.71419C7.52845 7.18657 4.85026 9.13941 2.53804 11.5914C2.29208 11.8522 2.01907 12.113 1.75397 12.3775C1.75358 12.3124 1.75526 12.2437 1.75397 12.1292C1.75441 11.9583 1.75516 11.8332 1.75397 11.7081C1.87229 9.602 2.69067 7.83808 4.32675 6.48312C5.51496 5.49908 6.88916 4.9733 8.45647 4.87534C8.4846 4.8733 8.48657 4.86914 8.48657 4.86914C9.46107 4.86917 10.4356 4.8692 11.4549 4.87099C11.6946 4.87192 11.8894 4.8711 12.0843 4.87029C12.2012 4.87114 12.2051 4.87114 12.2871 4.87114Z" fill="#143373"/>
<path d="M2.49786 11.8761C2.1627 12.0924 2.45943 12.0036 2.12323 12.2182C2.00929 12.2909 1.87409 12.4183 1.75413 12.5025C1.75402 12.4637 1.75502 12.4269 1.75391 12.3773C2.02656 12.1022 2.29206 11.8305 2.53802 11.5697C4.85024 9.11769 7.52843 7.16485 10.5582 5.69247C11.1372 5.41108 11.7204 5.13834 12.3017 4.86161C13.3015 4.53499 14.2865 4.14917 15.3046 3.89666C16.5912 3.57757 17.8994 3.33533 19.2079 3.11843C20.5958 2.8884 22.0025 2.86169 23.4075 2.8998C24.9968 2.94292 26.5733 3.12289 28.1338 3.42506C28.8036 3.55474 29.4693 3.71152 30.1284 3.88765C30.4003 3.9603 30.4975 3.85999 30.5693 3.63236C30.8556 2.72522 31.1455 1.81919 31.439 0.914348C31.5377 0.609816 31.6512 0.310036 31.7608 0C32.0752 0.22082 37.6684 9.3879 37.996 10.2118C37.4014 10.4249 36.8086 10.5926 36.1964 10.8182C35.9863 10.8812 35.7894 10.9657 35.6017 11.0287C34.0042 11.5649 32.4074 12.103 30.8121 12.6454C29.6041 13.0561 28.3986 13.4739 27.1919 13.8882C27.1406 13.9058 27.0881 13.92 26.981 13.9526C27.0555 13.7284 27.1172 13.5417 27.1796 13.3552C27.6119 12.0638 28.0417 10.7715 28.4801 9.48221C28.5393 9.30818 28.4968 9.24513 28.3287 9.17972C26.9148 8.6297 25.5619 8.14381 24.0741 7.85827C23.1191 7.67499 22.0368 7.50723 21.0688 7.43416C19.9489 7.34962 19.3892 7.34718 18.265 7.36207C16.5368 7.38496 14.3358 7.60506 12.6471 7.97086C10.8083 8.3692 8.94497 8.94788 7.21543 9.69754C6.28369 10.1014 5.36428 10.5344 4.44684 10.9701C4.02195 11.1719 3.63586 11.3353 3.20173 11.5394C3.50231 11.3259 3.79077 11.1873 4.12248 11.0157C6.20749 9.93723 8.35883 9.01974 10.6271 8.39681C11.3895 8.18744 12.1516 7.96735 12.9262 7.81508C13.726 7.65785 14.5391 7.56144 15.3497 7.46747C16.1426 7.37555 17.1936 7.32218 17.9904 7.29667C19.2612 7.25599 20.2809 7.21914 21.5417 7.41716C22.7462 7.60635 23.9587 7.77341 25.143 8.05441C26.2223 8.3105 27.2708 8.699 28.3277 9.0451C28.6587 9.1535 28.6996 9.26923 28.582 9.6161C28.1627 10.8534 27.7354 12.088 27.3142 13.3246C27.2782 13.4301 27.2645 13.5432 27.2405 13.6527C27.2618 13.6773 27.2832 13.7018 27.3045 13.7263C30.7796 12.5454 34.2548 11.3646 37.7855 10.1648C37.6807 10.0782 37.6504 10.0422 37.6117 10.0228C36.2842 9.35678 34.9723 8.65658 33.6235 8.03662C31.8543 7.22338 29.9963 6.63918 28.1135 6.15822C27.0138 5.87733 25.8793 5.7347 24.7624 5.51962C23.4744 5.27159 22.1674 5.26077 20.8649 5.20121C20.4436 5.18194 20.0188 5.22736 19.5961 5.25083C19.018 5.28294 18.4362 5.29115 17.8632 5.36529C16.7636 5.50757 15.6626 5.65496 14.5737 5.86136C12.3342 6.28586 10.2071 7.06503 8.16218 8.0573C7.20201 8.5232 6.26537 9.04622 5.35527 9.60406C4.57196 10.0842 3.93225 10.6798 3.1907 11.2247C2.99663 11.3673 2.7654 11.5536 2.55611 11.7971C2.81587 11.7271 2.32566 11.9226 2.49786 11.8761Z" fill="#FDC334"/>
<path d="M2.43351 12.0643C2.3164 12.134 2.19478 12.2144 2.08321 12.2909C1.97163 12.3674 1.86642 12.4374 1.75391 12.5022C1.7556 12.4122 1.74734 12.4401 1.82439 12.3641C1.93092 12.2589 2.21019 12.0025 2.35492 11.8657C2.64439 11.5921 3.02906 11.2929 3.12609 11.2216C3.86764 10.6766 4.57196 10.0839 5.35527 9.60378C6.26537 9.04594 7.20201 8.52293 8.16218 8.05703C10.2071 7.06476 12.3342 6.28559 14.5737 5.86108C15.6626 5.65469 16.7636 5.5073 17.8632 5.36502C18.4362 5.29088 19.018 5.28266 19.5961 5.25056C20.0188 5.22708 20.4436 5.18167 20.8649 5.20093C22.1674 5.26049 23.4744 5.27131 24.7624 5.51935C25.8793 5.73442 27.0138 5.87706 28.1135 6.15795C29.9963 6.63891 31.8543 7.2231 33.6235 8.03634C34.9723 8.65631 36.2842 9.35651 37.6117 10.0225C37.6504 10.0419 37.8934 10.1233 37.9983 10.2099C34.4675 11.4096 30.4509 12.8019 26.9757 13.9828C26.99 13.9454 27.0188 13.8348 27.045 13.7607C27.0711 13.6866 27.1613 13.409 27.1973 13.3035C27.6185 12.0669 27.9845 10.9426 28.4039 9.70537C28.5215 9.3585 28.6032 9.26768 28.2722 9.15928C27.2153 8.81318 26.2916 8.44896 25.2123 8.19287C24.0281 7.91187 22.8011 7.67533 21.5835 7.5377C21.1048 7.48359 21.0123 7.49367 20.3699 7.449C19.9533 7.42004 18.756 7.40437 17.9492 7.42196C17.1036 7.44039 15.8261 7.51214 15.4156 7.56085C14.6048 7.65703 13.8272 7.77566 13.0025 7.93967C12.2255 8.09419 11.4474 8.28654 10.6642 8.49775C9.88107 8.70896 8.56506 9.14186 7.45263 9.59733C6.35632 10.0462 5.98275 10.2684 5.46001 10.5105C4.85363 10.7913 3.93071 11.2146 3.18559 11.6227C2.94125 11.7565 2.68494 11.9148 2.43351 12.0643Z" fill="#FAAA21"/>
<path d="M49.0258 27V21.1L44.0658 13H47.1858L50.3858 18.36L53.6058 13H56.7258L51.7658 21.08V27H49.0258ZM59.5363 27.24C58.3363 27.24 57.4029 26.9733 56.7363 26.44C56.0829 25.9067 55.7563 25.1533 55.7563 24.18C55.7563 23.1133 56.1096 22.3133 56.8163 21.78C57.5363 21.2333 58.5429 20.96 59.8363 20.96H62.1963C62.1029 20.3467 61.9096 19.88 61.6163 19.56C61.3229 19.2267 60.9029 19.06 60.3563 19.06C59.9296 19.06 59.5429 19.1533 59.1963 19.34C58.8496 19.5267 58.5563 19.8133 58.3163 20.2L55.9963 19.4C56.1829 18.9733 56.4563 18.56 56.8163 18.16C57.1763 17.7467 57.6429 17.4133 58.2163 17.16C58.8029 16.8933 59.5163 16.76 60.3563 16.76C61.3696 16.76 62.2096 16.9533 62.8763 17.34C63.5563 17.7267 64.0563 18.2733 64.3763 18.98C64.7096 19.6733 64.8696 20.5 64.8563 21.46L64.7963 27H62.3363L62.2963 25.84C62.0429 26.2933 61.6829 26.64 61.2163 26.88C60.7629 27.12 60.2029 27.24 59.5363 27.24ZM59.9763 25.04C60.4029 25.04 60.7896 24.94 61.1363 24.74C61.4829 24.54 61.7563 24.28 61.9563 23.96C62.1563 23.64 62.2563 23.3067 62.2563 22.96V22.92H60.7563C59.8896 22.92 59.2896 23.0267 58.9563 23.24C58.6229 23.44 58.4563 23.7267 58.4563 24.1C58.4563 24.3933 58.5896 24.6267 58.8563 24.8C59.1229 24.96 59.4963 25.04 59.9763 25.04ZM71.0803 27.24C69.9736 27.24 69.1336 26.9667 68.5603 26.42C68.0003 25.8733 67.7203 25.0933 67.7203 24.08V19.24H66.1003V17H67.7203V13.88H70.3603V17H72.8603V19.24H70.3603V23.5C70.3603 23.9267 70.4536 24.2533 70.6403 24.48C70.827 24.6933 71.1003 24.8 71.4603 24.8C71.5936 24.8 71.7403 24.7733 71.9003 24.72C72.0603 24.6533 72.227 24.56 72.4003 24.44L73.3203 26.42C73.0003 26.66 72.6403 26.8533 72.2403 27C71.8536 27.16 71.467 27.24 71.0803 27.24ZM75.0272 27V13H77.6672V18.28C78.0005 17.7867 78.4139 17.4133 78.9072 17.16C79.4005 16.8933 79.9539 16.76 80.5672 16.76C81.3672 16.76 82.0405 16.92 82.5872 17.24C83.1472 17.56 83.5739 18.06 83.8672 18.74C84.1605 19.4067 84.3072 20.2733 84.3072 21.34V27H81.6672V21.88C81.6672 21.2 81.5872 20.6733 81.4272 20.3C81.2672 19.9267 81.0472 19.66 80.7672 19.5C80.4872 19.3267 80.1605 19.24 79.7872 19.24C79.1072 19.2267 78.5805 19.4333 78.2072 19.86C77.8472 20.2867 77.6672 20.92 77.6672 21.76V27H75.0272ZM86.4134 27V17H89.0534V18.84C89.4668 18.2133 89.9868 17.7467 90.6134 17.44C91.2534 17.12 91.9134 16.96 92.5934 16.96V19.52C91.9801 19.52 91.4001 19.5933 90.8534 19.74C90.3201 19.8867 89.8868 20.1267 89.5534 20.46C89.2201 20.7933 89.0534 21.22 89.0534 21.74V27H86.4134ZM97.2316 27.24C96.0316 27.24 95.0982 26.9733 94.4316 26.44C93.7782 25.9067 93.4516 25.1533 93.4516 24.18C93.4516 23.1133 93.8049 22.3133 94.5116 21.78C95.2316 21.2333 96.2382 20.96 97.5316 20.96H99.8916C99.7982 20.3467 99.6049 19.88 99.3116 19.56C99.0182 19.2267 98.5982 19.06 98.0516 19.06C97.6249 19.06 97.2382 19.1533 96.8916 19.34C96.5449 19.5267 96.2516 19.8133 96.0116 20.2L93.6916 19.4C93.8782 18.9733 94.1516 18.56 94.5116 18.16C94.8716 17.7467 95.3382 17.4133 95.9116 17.16C96.4982 16.8933 97.2116 16.76 98.0516 16.76C99.0649 16.76 99.9049 16.9533 100.572 17.34C101.252 17.7267 101.752 18.2733 102.072 18.98C102.405 19.6733 102.565 20.5 102.552 21.46L102.492 27H100.032L99.9916 25.84C99.7382 26.2933 99.3782 26.64 98.9116 26.88C98.4582 27.12 97.8982 27.24 97.2316 27.24ZM97.6716 25.04C98.0982 25.04 98.4849 24.94 98.8316 24.74C99.1782 24.54 99.4516 24.28 99.6516 23.96C99.8516 23.64 99.9516 23.3067 99.9516 22.96V22.92H98.4516C97.5849 22.92 96.9849 23.0267 96.6516 23.24C96.3182 23.44 96.1516 23.7267 96.1516 24.1C96.1516 24.3933 96.2849 24.6267 96.5516 24.8C96.8182 24.96 97.1916 25.04 97.6716 25.04Z" fill="#143373"/>
<path d="M111.536 27.24C110.109 27.24 108.842 26.9333 107.736 26.32C106.642 25.6933 105.782 24.84 105.156 23.76C104.529 22.6667 104.216 21.4133 104.216 20C104.216 18.5867 104.529 17.34 105.156 16.26C105.782 15.1667 106.642 14.3133 107.736 13.7C108.842 13.0733 110.109 12.76 111.536 12.76C112.389 12.76 113.176 12.8867 113.896 13.14C114.616 13.3933 115.249 13.7467 115.796 14.2C116.356 14.64 116.822 15.1467 117.196 15.72L114.956 17.12C114.729 16.76 114.429 16.44 114.056 16.16C113.696 15.88 113.296 15.66 112.856 15.5C112.416 15.34 111.976 15.26 111.536 15.26C110.656 15.26 109.876 15.4667 109.196 15.88C108.516 16.28 107.982 16.8333 107.596 17.54C107.209 18.2467 107.016 19.0667 107.016 20C107.016 20.92 107.202 21.74 107.576 22.46C107.962 23.18 108.502 23.7467 109.196 24.16C109.889 24.56 110.689 24.76 111.596 24.76C112.276 24.76 112.882 24.6333 113.416 24.38C113.949 24.1133 114.376 23.7467 114.696 23.28C115.016 22.8133 115.196 22.2667 115.236 21.64H111.996V19.5H117.876V21.2C117.849 22.48 117.562 23.5733 117.016 24.48C116.469 25.3733 115.722 26.06 114.776 26.54C113.829 27.0067 112.749 27.24 111.536 27.24ZM124.219 27.24C123.206 27.24 122.299 27.02 121.499 26.58C120.712 26.1267 120.092 25.5067 119.639 24.72C119.199 23.9333 118.979 23.0267 118.979 22C118.979 20.9733 119.199 20.0667 119.639 19.28C120.079 18.4933 120.692 17.88 121.479 17.44C122.266 16.9867 123.166 16.76 124.179 16.76C125.206 16.76 126.112 16.9867 126.899 17.44C127.686 17.88 128.299 18.4933 128.739 19.28C129.179 20.0667 129.399 20.9733 129.399 22C129.399 23.0267 129.179 23.9333 128.739 24.72C128.299 25.5067 127.686 26.1267 126.899 26.58C126.126 27.02 125.232 27.24 124.219 27.24ZM124.219 24.8C124.712 24.8 125.146 24.68 125.519 24.44C125.892 24.2 126.179 23.8733 126.379 23.46C126.592 23.0333 126.699 22.5467 126.699 22C126.699 21.4533 126.592 20.9733 126.379 20.56C126.166 20.1333 125.866 19.8 125.479 19.56C125.106 19.32 124.672 19.2 124.179 19.2C123.699 19.2 123.266 19.32 122.879 19.56C122.506 19.8 122.212 20.1333 121.999 20.56C121.786 20.9733 121.679 21.4533 121.679 22C121.679 22.5467 121.786 23.0333 121.999 23.46C122.212 23.8733 122.512 24.2 122.899 24.44C123.286 24.68 123.726 24.8 124.219 24.8Z" fill="#FDC334"/>
</svg>
