<svg width="70" height="70" viewBox="0 0 70 70" fill="none" xmlns="http://www.w3.org/2000/svg">
<path d="M69.3014 -5.25H0.0618711V75.1385H69.3014V-5.25Z" fill="#FDE63A"/>
<path d="M20.159 57.8282C20.159 57.8282 10.0729 60.5364 2.26273 64.5761C1.19919 65.1262 0.523033 65.2158 0.0256069 66.043C0.0416069 68.3376 -0.0625257 75.3734 0.0622293 75.2484L69.375 75.1751C69.3778 73.0114 69.4605 65.8938 69.375 64.8336C68.8132 64.0288 68.7149 63.9895 67.9816 63.55C67.2483 63.1097 45.9775 56.6554 45.9775 56.6554L20.159 57.8282Z" fill="#87AADE"/>
<path d="M49.2212 38.4867C49.2547 38.3953 49.2942 38.3628 49.3223 38.2776C49.3692 38.1313 49.3866 37.977 49.4132 37.8231C49.4498 37.6127 49.4912 37.4017 49.5269 37.1868C49.5648 36.9604 49.5938 36.7237 49.6406 36.505C49.6874 36.2863 49.748 36.0852 49.8224 35.8913C49.9295 35.6113 50.0188 35.3598 50.0952 35.1186C50.2177 34.7318 50.3332 34.2676 50.4133 33.7778C50.4736 33.4152 50.528 33.0284 50.4588 32.6414C50.42 32.4004 50.4 32.1898 50.1757 32.0628C50.0922 32.0198 49.9911 31.9949 49.903 31.9946C49.7561 31.9939 49.622 32.0325 49.4939 32.0856C49.3304 32.1519 49.1716 32.262 49.0394 32.3583C48.9276 32.4397 48.7597 32.6052 48.6417 32.6696L48.3212 32.7127C48.3479 32.6385 48.2891 32.4923 48.3082 32.4036C48.562 31.1806 49.0111 27.0348 48.9908 25.0052C48.9443 20.3785 50.3299 18.5387 46.9855 14.4966C46.1448 13.4803 44.8655 12.2885 43.7675 11.5308C44.3457 11.6817 44.7951 11.7489 45.4447 12.0694C44.0162 10.9152 42.7483 10.2854 41.6766 9.73317C42.1924 9.81277 42.8508 9.9797 43.3879 10.065C39.9245 8.35298 37.5648 8.15192 35.2996 8.16737L34.7268 8.22877C33.7302 8.23529 33.3232 8.28888 32.6088 8.44013C30.3757 8.34024 27.2401 8.06371 24.0841 9.5946C24.5307 9.56958 24.9092 9.55269 25.2659 9.54912C23.8525 10.2079 22.2786 11.058 20.5138 12.9671C20.9132 12.748 21.2632 12.5587 21.6047 12.399C20.2569 13.6719 18.7584 15.6872 18.0366 17.5306C17.2452 19.552 17.4192 28.4617 17.7275 30.0078C18.0118 31.4339 17.7389 32.3595 17.7083 32.4833C17.6969 32.4768 17.6969 32.4658 17.6856 32.4606C17.4821 32.3628 17.1651 32.2524 16.9202 32.362C16.6772 32.4907 16.5891 32.718 16.5415 32.9601C16.4549 33.36 16.5528 33.7372 16.6324 34.0962C16.7595 34.6954 16.9106 35.2787 17.049 35.7327C17.0995 35.8981 17.1625 36.0643 17.2233 36.2554C17.2836 36.4436 17.3377 36.6447 17.3672 36.8614C17.397 37.078 17.4093 37.3232 17.4278 37.5508C17.4446 37.7604 17.4392 37.9492 17.458 38.1568C17.471 38.309 17.4743 38.4632 17.511 38.6113C17.5513 38.7663 17.6132 38.8948 17.6915 39.0175C17.698 39.0273 17.7084 39.0537 17.7143 39.063C17.7305 39.1891 17.863 39.3666 17.8653 39.6416C17.8669 39.8547 17.941 40.1064 17.9188 40.3531C17.897 40.5999 17.8614 40.8419 17.8278 41.0734C17.8031 41.2405 17.7839 41.3998 17.7789 41.5437C17.774 41.6462 17.787 41.7676 17.8016 41.8846C17.8341 42.1565 17.9212 42.4073 18.0866 42.659C18.1836 42.8088 18.129 42.8179 18.2894 42.8962C18.4265 42.9617 18.5502 43.0085 18.6845 43.0255C18.859 43.0481 19.0354 43.0717 19.1775 43.1165C19.3718 43.1777 19.515 43.2206 19.6674 43.3403C19.878 43.5057 20.0566 43.62 20.36 43.8425C20.3842 43.9189 20.4342 43.9783 20.459 44.061C20.5437 44.3422 20.6748 44.6887 20.8227 45.0154C21.0476 45.5121 21.3656 46.0743 21.6641 46.5915L21.6755 46.8333C22.8085 51.8714 21.9988 55.9994 19.8146 59.1408C23.5808 66.8458 29.5103 66.1493 34.7445 66.4053C39.878 66.6563 47.6549 62.1604 47.1315 59.0953C45.371 56.1107 45.0246 51.9174 45.509 48.2214C45.6455 47.2148 45.7522 46.8186 45.9952 46.3047C46.2182 45.8102 46.3675 45.534 46.5772 45.0994C46.8667 44.498 47.0225 43.8862 47.1226 43.3722C47.1373 43.2996 47.1551 43.2083 47.1849 43.1164C47.2734 43.0537 47.3843 42.9973 47.4374 42.9632C47.5938 42.8625 47.8249 42.7256 48.0965 42.6223C48.1769 42.5921 48.2599 42.564 48.3465 42.5086C48.4392 42.4474 48.5134 42.3476 48.5737 42.2586C48.7393 42.0183 48.8467 41.7447 48.8919 41.4632C48.9341 41.1941 48.9807 40.9609 48.9723 40.7552C48.9716 40.7311 48.973 40.7121 48.9723 40.6869C48.9609 40.4206 48.8859 40.0786 48.9145 39.7552C48.9426 39.4355 49.0098 39.1187 49.0737 38.8915C49.1373 38.6644 49.1802 38.6032 49.2226 38.487L49.2212 38.4867Z" fill="#87AADE"/>
<path d="M35.1765 7.99266C34.1798 7.99918 33.3227 8.09126 32.6084 8.24265C30.2218 7.95084 26.4598 8.07495 23.4495 9.78808C23.8961 9.76306 24.2745 9.74601 24.6313 9.7426C23.2179 10.4013 21.6007 11.5379 19.836 13.447C20.2354 13.2279 20.6082 13.0385 20.9496 12.8788C19.6018 14.1517 18.5124 15.6944 17.7906 17.5378C16.9991 19.5591 17.255 28.4688 17.5633 30.015C17.8477 31.4411 17.6621 32.2774 17.6315 32.4013C17.6202 32.3947 17.6202 32.3839 17.6088 32.3785C17.4053 32.2807 17.1264 32.2008 16.8815 32.3103C16.6386 32.4389 16.5428 32.7046 16.4952 32.9466C16.4086 33.3466 16.5066 33.7466 16.5862 34.1056C16.7132 34.7048 16.8796 35.2653 17.018 35.7192C17.0685 35.8847 17.1164 36.0735 17.177 36.2647C17.2373 36.4529 17.2837 36.6616 17.3133 36.8783C17.343 37.0949 17.363 37.3098 17.3815 37.5373C17.3982 37.7469 17.4086 37.9661 17.427 38.1737C17.44 38.3259 17.4577 38.4802 17.4952 38.6282C17.5355 38.7832 17.5987 38.9146 17.677 39.0373C17.6836 39.047 17.6936 39.0503 17.6998 39.06C17.716 39.1861 17.8169 39.3759 17.8195 39.6509C17.8211 39.864 17.888 40.1087 17.8659 40.3554C17.8442 40.6022 17.8086 40.8512 17.775 41.0827C17.7503 41.2498 17.7344 41.4161 17.7295 41.5599C17.7246 41.6624 17.7392 41.7612 17.7522 41.8781C17.7847 42.15 17.8229 42.4049 17.9883 42.6567C18.0853 42.8064 18.1828 42.8726 18.343 42.951C18.4801 43.0165 18.6951 43.0872 18.8293 43.1042C19.0038 43.1268 19.1872 43.1503 19.3293 43.1952C19.5236 43.2564 19.659 43.3334 19.7611 43.3997C19.6644 43.3264 19.5174 43.2246 19.3293 43.1497C19.1858 43.0932 19.0253 43.0472 18.852 43.0133C18.7208 42.9866 18.5005 42.9241 18.3884 42.8601C18.2567 42.7885 18.1855 42.728 18.1019 42.5885C17.9605 42.3474 17.9352 42.1266 17.9113 41.8781C17.8941 41.7077 17.9 41.5239 17.9113 41.3781C17.9178 41.2909 17.9243 41.208 17.9341 41.1054C17.957 40.8849 17.9743 40.6267 17.9795 40.3781C17.9845 40.1296 17.9074 39.892 17.8876 39.6736C17.865 39.4239 17.7508 39.2401 17.7225 39.1055C17.7894 39.2029 17.8596 39.2961 17.927 39.3782C18.125 39.6203 18.2784 39.8165 18.3815 39.9691C18.4847 40.1216 18.5406 40.2191 18.5406 40.2191C18.5406 40.2191 18.5 40.1266 18.4041 39.9691C18.3084 39.8115 18.1606 39.5849 17.9723 39.3327C17.8963 39.2306 17.7935 39.1362 17.7223 39.0146C17.6512 38.8929 17.5934 38.7509 17.5633 38.6055C17.5336 38.4661 17.5256 38.305 17.5178 38.151C17.5064 37.9456 17.5048 37.7501 17.4951 37.5373C17.4853 37.3143 17.4738 37.0785 17.4496 36.8555C17.4256 36.6326 17.3968 36.4268 17.3359 36.2192C17.2433 35.9047 17.1619 35.5943 17.0859 35.3329C16.9777 34.9609 16.8505 34.5405 16.745 34.0829C16.7211 33.9765 16.7008 33.8729 16.6768 33.7648C16.7427 33.9332 16.8243 34.0167 16.9495 34.1511C17.2839 34.5102 17.5177 34.1739 17.5177 34.1739C17.7903 34.3846 18.256 35.0514 19.0631 36.8328C19.002 36.7118 18.8969 36.6653 18.7903 36.6056C18.5955 36.4963 18.2102 36.6816 18.1767 36.9692C18.1186 37.4689 18.515 38.8322 18.5631 38.5601C18.5992 38.3559 18.3454 37.6716 18.4949 37.3556C18.5727 37.1911 18.8881 37.1476 19.1312 37.2419C19.1954 37.2669 19.1718 37.0861 19.1312 36.9692C19.1302 36.9642 19.1323 36.9498 19.1312 36.9464C18.5088 35.2848 17.9325 34.1241 17.4495 33.5602C17.1634 33.2262 16.8621 33.0509 16.7223 33.0602C16.6656 33.0651 16.63 33.1612 16.6086 33.242C16.6078 33.1545 16.6135 33.078 16.6313 32.992C16.6815 32.764 16.758 32.5187 16.9495 32.4239C17.1302 32.3232 17.3666 32.3776 17.5631 32.4694C18.4107 32.8649 18.6746 33.4494 19.063 34.1625C19.2541 34.5132 19.66 35.649 19.8926 36.5828C19.7751 35.5809 19.492 34.7269 19.3926 34.4238L20.6993 34.4465C20.7107 34.7062 20.7316 34.9621 20.7903 35.2192C20.8824 35.6299 21.0806 36.0399 21.4039 36.3328C21.8383 36.7162 22.3955 36.8738 22.9266 37.0146C23.7883 37.2482 24.6741 37.3538 25.5629 37.3555C26.7324 37.3587 27.907 37.273 29.0627 37.0828C29.4728 37.0153 29.887 36.933 30.29 36.81C30.4251 36.7689 30.5659 36.7371 30.699 36.6736C30.7803 36.6378 30.8715 36.5802 30.949 36.4918C31.1625 36.2274 31.2608 35.9062 31.3354 35.6054C31.4254 35.2562 31.4746 34.907 31.5399 34.56C31.5852 34.3166 31.5766 34.0471 31.5172 33.8101C32.1952 33.3016 33.0198 33.2424 33.4262 33.2419C33.8492 33.2414 34.5573 33.3964 35.2216 33.7419C35.2226 33.8398 35.2265 33.9406 35.2443 34.0373C35.3142 34.3834 35.3996 34.7348 35.4943 35.0827C35.5729 35.3824 35.6637 35.7076 35.8807 35.9691C35.9594 36.0565 36.049 36.1162 36.1307 36.1509C36.2647 36.2126 36.4041 36.248 36.5397 36.2872C36.9443 36.4048 37.356 36.4753 37.767 36.5372C38.9251 36.712 40.0975 36.7826 41.2668 36.7644C42.1554 36.7514 43.0445 36.6458 43.9031 36.4008C44.4324 36.253 44.9966 36.0627 45.4258 35.6735C45.7452 35.3763 45.93 34.9718 46.0167 34.56C46.0724 34.2997 46.1011 34.0268 46.1076 33.7645L47.9018 33.3782C47.6971 33.7771 47.5205 34.3893 47.3576 35.0373C47.5904 34.4071 47.9623 33.6414 48.1985 33.2419C48.2574 33.142 48.4088 32.904 48.5621 32.7647C48.7159 32.6255 48.8903 32.487 49.0848 32.3556C49.2188 32.2654 49.3634 32.184 49.5166 32.1283C49.7178 32.0601 49.9473 31.98 50.1075 32.0828C50.2134 32.1376 50.2911 32.2488 50.3348 32.3783C50.2886 32.356 50.2236 32.3544 50.1529 32.3555C49.9867 32.3588 49.7456 32.4309 49.4711 32.651C48.9113 33.0996 48.4167 34.0887 47.653 36.5145C47.6416 36.5509 47.6416 36.591 47.6303 36.6282C47.6205 36.6941 47.6319 36.7796 47.6758 36.7646C48.0745 36.6248 48.3759 36.7597 48.4257 37.0828C48.4785 37.4248 48.0516 38.0301 48.153 38.1055C48.2571 38.1828 48.3997 37.8573 48.5166 37.5828C48.6492 37.272 48.7575 36.9939 48.7439 36.7419C48.7116 36.1426 48.2563 35.836 47.8803 36.1965C48.7562 33.9726 49.1459 33.4799 49.4257 33.2875C49.4257 33.2875 49.5391 33.5579 49.9484 33.2875C50.1292 33.1681 50.3168 33.0255 50.403 32.833C50.4215 33.1368 50.3659 33.4406 50.312 33.742C50.2007 34.3545 50.0357 34.9178 49.8802 35.3784C49.8326 35.5192 49.7787 35.6729 49.7212 35.8329C49.6497 36.0323 49.6044 36.2437 49.5621 36.4692C49.5199 36.6947 49.4788 36.9411 49.4484 37.1737C49.42 37.3895 49.4086 37.5985 49.3802 37.8101C49.3591 37.9654 49.3284 38.1246 49.2893 38.2646C49.2514 38.4074 49.1777 38.5184 49.0847 38.6282C48.9918 38.738 48.8855 38.8559 48.7893 38.9464C48.6715 39.0559 48.5629 39.1459 48.4711 39.2419C48.3793 39.3379 48.3024 39.4161 48.2438 39.4918C48.3044 39.422 48.4025 39.3515 48.4938 39.2646C48.5895 39.1735 48.6891 39.074 48.812 38.9691C48.9124 38.884 49.0291 38.7844 49.1302 38.6737C49.2312 38.5631 49.3281 38.4451 49.3802 38.2873C49.4271 38.141 49.4445 37.9867 49.4711 37.8328C49.5077 37.6224 49.5491 37.4114 49.5848 37.1965C49.6227 36.9701 49.6518 36.7334 49.6985 36.5147C49.7453 36.296 49.8059 36.0949 49.8803 35.9011C49.9874 35.621 50.0767 35.3468 50.1531 35.1056C50.2755 34.7188 50.3911 34.2546 50.4712 33.7648C50.5315 33.4023 50.5859 33.0154 50.5167 32.6284C50.4779 32.3874 50.4001 32.1191 50.1758 31.9921C50.0923 31.949 49.9912 31.9242 49.9031 31.9239C49.7563 31.9232 49.6221 31.9843 49.494 32.0376C49.3306 32.1039 49.1717 32.1912 49.0395 32.2876C48.9278 32.3689 48.8417 32.4527 48.7441 32.5376L48.4031 32.5829C48.4298 32.5087 48.453 32.4216 48.4714 32.3329C48.7251 31.1099 49.4007 27.0446 49.3804 25.0149C49.3341 20.3881 50.452 18.4667 47.1077 14.4242C46.2669 13.4079 45.2741 12.5002 44.176 11.7425C44.7542 11.8934 45.3673 12.1266 46.0168 12.447C44.5883 11.2928 43.3613 10.4993 42.2897 9.94714C42.8054 10.0267 43.3207 10.1118 43.8578 10.1971C40.3944 8.48513 37.4417 7.9773 35.1765 7.99266ZM40.5399 16.4696C41.749 16.4707 42.7381 16.7282 43.3353 17.515C45.0725 19.804 45.5576 21.4852 45.767 23.4239C45.9765 25.3627 45.935 26.7825 46.6079 27.8556C47.2338 28.8537 47.3691 31.8588 47.267 32.6963L45.9261 32.8328C45.86 32.7173 45.7956 32.6283 45.6988 32.5373C45.4045 32.2626 45.0322 32.0884 44.6761 31.9464C44.0655 31.7009 43.4089 31.5906 42.767 31.5146C42.2185 31.4491 41.6821 31.4095 41.1308 31.4009C40.6937 31.3944 40.242 31.4262 39.8127 31.4691C39.2913 31.5209 38.7837 31.5869 38.2673 31.6736C37.7906 31.7537 37.3056 31.844 36.8355 31.9691C36.6546 32.0172 36.4688 32.0841 36.2901 32.1509C36.1673 32.1959 36.0465 32.2497 35.9265 32.3327C35.6318 32.5404 35.4197 32.8316 35.3129 33.1736C35.2846 33.2638 35.2589 33.3524 35.2446 33.4463C34.7009 33.172 33.9472 33.0106 33.3584 33.0145C32.7491 33.0194 31.8478 33.2424 31.4266 33.5372C31.3042 33.2624 31.1084 33.0039 30.8585 32.8327C30.7375 32.7513 30.5955 32.717 30.4721 32.6737C30.2926 32.6092 30.1082 32.5603 29.9267 32.5146C29.455 32.3957 28.9953 32.2929 28.5177 32.2192C28.0001 32.1393 27.4716 32.0821 26.9495 32.0374C26.5196 32.0003 26.0911 31.9796 25.6541 31.9919C25.1029 32.0081 24.5428 32.0328 23.9951 32.1056C23.3543 32.1901 22.7161 32.3292 22.1088 32.5829C21.7546 32.7295 21.3768 32.8952 21.0861 33.1738C20.9006 33.3527 20.7762 33.5791 20.7225 33.8328L19.9271 33.7873C19.7413 33.2666 19.2045 31.6624 19.3367 30.7656C19.466 29.8859 20.0754 29.8783 20.1548 28.6066C20.2342 27.3348 19.926 22.6639 20.3138 21.3569C20.7018 20.0498 22.4213 17.3894 23.9501 16.9252C26.5932 16.1227 28.7514 17.6708 32.6088 17.5161C35.1402 17.4146 38.2319 16.4677 40.5404 16.4707L40.5399 16.4696ZM40.472 31.6291C40.6848 31.6161 40.8969 31.6242 41.1083 31.6291C41.6531 31.6372 42.2048 31.6554 42.7447 31.7201C43.3785 31.7964 44.0047 31.9166 44.5855 32.1519C44.9324 32.2937 45.2827 32.452 45.54 32.6973C45.7417 32.8882 45.8767 33.1537 45.8809 33.4245C45.889 33.7959 45.8662 34.1611 45.7899 34.5154C45.7059 34.8956 45.5445 35.2645 45.2672 35.5154C44.8909 35.8662 44.3807 36.0444 43.8582 36.1972C43.0227 36.4362 42.1405 36.5242 41.2673 36.5381C40.1085 36.5559 38.9572 36.5064 37.813 36.3335C37.4062 36.272 36.9979 36.1972 36.6085 36.0835C36.4777 36.0452 36.34 36.002 36.2221 35.9472C36.1461 35.9091 36.074 35.8787 36.0403 35.8335C35.8583 35.6247 35.783 35.3335 35.6994 35.0381C35.688 34.998 35.6864 34.9421 35.6768 34.9017C35.7051 34.8213 35.6952 34.6873 35.6768 34.5153C35.7978 34.4536 35.8662 34.3135 35.8359 34.1744C35.8052 34.0336 35.6785 33.9278 35.5404 33.9244C35.5081 33.8349 35.4845 33.7552 35.4495 33.6972C35.4496 33.6809 35.4488 33.6679 35.4495 33.6517V33.5835C35.4592 33.4673 35.4831 33.3541 35.5177 33.2426C35.6103 32.9465 35.8106 32.6917 36.0631 32.5153C36.1541 32.4502 36.2627 32.4016 36.3813 32.3563C36.5498 32.2931 36.7267 32.2445 36.904 32.1973C37.3643 32.0746 37.8174 31.9814 38.2904 31.9018C38.8021 31.8157 39.3196 31.7485 39.8358 31.6973C40.0491 31.6762 40.2592 31.6428 40.472 31.6291ZM25.6546 32.1973C25.7604 32.1941 25.8667 32.1962 25.9728 32.1973C26.291 32.2022 26.607 32.2382 26.9273 32.2655C27.444 32.3098 27.9598 32.368 28.4727 32.4473C28.9466 32.5206 29.4198 32.6034 29.8817 32.72C30.0596 32.765 30.2351 32.8181 30.4044 32.879C30.5237 32.9227 30.6308 32.9742 30.7226 33.0381C30.9775 33.2111 31.1715 33.4705 31.268 33.7653C31.3161 33.9135 31.3551 34.0651 31.359 34.2199C31.3249 34.2783 31.2765 34.3574 31.2453 34.4471C31.1058 34.452 30.979 34.5545 30.9498 34.6971C30.9217 34.8347 31.0125 34.954 31.1317 35.0153C31.1151 35.1892 31.1251 35.3437 31.1544 35.4243C31.1446 35.4662 31.1196 35.4965 31.1089 35.538C31.0293 35.8345 30.9473 36.145 30.768 36.3562C30.735 36.4018 30.6844 36.4304 30.609 36.4699C30.4919 36.5263 30.353 36.5662 30.2226 36.6063C29.8347 36.7253 29.4468 36.7893 29.0408 36.8563C27.899 37.0444 26.7227 37.1315 25.5637 37.1291C24.6904 37.1275 23.8342 37.0389 22.9955 36.8109C22.471 36.665 21.922 36.4976 21.541 36.1518C21.2604 35.9046 21.1074 35.5536 21.0183 35.1746C20.9366 34.8213 20.9238 34.4325 20.9274 34.061C20.928 33.7902 21.0464 33.5273 21.2455 33.3338C21.4995 33.0851 21.8324 32.9347 22.1773 32.7883C22.7549 32.5454 23.3855 32.4187 24.0181 32.3338C24.5571 32.262 25.1101 32.213 25.6546 32.1973Z" fill="#87AADE"/>
<path d="M27.5306 51.0076C27.5306 51.0076 30.0978 55.0784 33.8384 55.1885C37.5792 55.2985 41.2465 50.8977 41.2465 50.8977C41.2465 50.8977 38.4226 55.4452 34.2785 55.4452C30.1344 55.4452 27.5306 51.0076 27.5306 51.0076Z" fill="#3062AD"/>
</svg>
