<svg width="1025" height="223" viewBox="0 0 1025 223" fill="none" xmlns="http://www.w3.org/2000/svg">
<path d="M8.80923 75.8704C8.80923 74.7044 8.79169 73.7251 8.80923 72.3723C8.80299 70.1721 8.82281 68.2027 8.80915 66.2334C8.81208 64.928 8.80861 63.6225 8.80915 62.1824C8.80671 62.0478 8.80915 62.0594 8.80915 62.0594C8.81282 61.8816 8.8031 61.5153 8.80923 61.1812C9.5123 60.6997 10.0418 60.1917 10.5994 59.8357C12.2447 58.7854 14.0514 57.9426 15.6833 56.8797C16.2352 56.5525 16.82 56.2304 16.9215 56.2263C19.0544 55.1333 20.1966 54.5588 22.276 53.5712C26.7658 51.4388 30.9053 49.4397 35.4651 47.4633C43.9293 43.7946 52.9662 41.0586 61.9653 39.1092C70.2293 37.319 78.7544 36.4339 87.212 36.3218C92.7137 36.249 98.0935 36.2369 103.574 36.6506C108.311 37.0082 113.08 37.8532 117.754 38.7502C125.035 40.1476 132.016 42.1414 138.935 44.8331C139.758 45.1532 139.894 45.6539 139.604 46.5055C137.458 52.8153 135.355 59.1396 133.24 65.4596C132.934 66.3722 132.632 67.2861 132.268 68.3831C132.792 68.2236 133.049 68.154 133.3 68.0678C139.205 66.0403 145.105 63.9956 151.017 61.9859C158.824 59.3316 166.673 56.5453 174.49 53.9213C175.409 53.613 176.972 53.0225 177.911 52.7766C177.908 55.3442 177.905 58.4546 177.908 61.0224C177.941 93.6506 177.8 126.287 177.85 158.916C177.861 166.125 176.673 173.007 172.83 179.182C166.467 189.408 157.183 195.155 145.137 195.358C126.634 195.67 108.122 195.445 89.6147 195.444C89.4964 195.444 89.3782 195.398 89.188 195.358C112.968 174.686 125.698 148.949 125.502 117.014C127.789 117.665 129.986 118.267 132.17 118.917C134.323 119.559 136.462 120.251 138.642 120.931C137.682 118.11 128.878 105.506 122.325 98.4193C116.014 91.5933 109.363 85.1766 101.451 80.2061C101.565 83.3344 101.84 86.3833 101.758 89.4228C101.468 100.256 98.1096 110.191 92.5827 119.431C84.2278 133.4 72.5324 143.91 58.5816 152.044C50.9123 156.515 42.7954 159.875 34.0155 161.443C26.347 162.813 18.717 163.029 11.273 160.205C3.92141 157.417 -0.0954129 151.514 0.248424 144.059C0.426988 140.188 1.61699 136.604 3.45884 133.231C6.36554 127.908 10.1651 123.254 14.4021 118.952C16.1461 117.181 18.0196 115.538 19.9631 113.723C20.2343 113.443 20.3766 113.276 20.5189 113.108C20.8342 112.682 20.8643 112.597 20.3484 112.945L19.694 113.461C16.4267 116.234 13.1633 119.01 9.88584 121.77C9.58987 122.02 9.09104 122.469 8.80915 122.714C8.77678 120.327 8.82976 117.58 8.80915 115.382C8.81819 102.486 8.79242 89.5891 8.80922 76.5139C8.80213 76.2132 8.80923 76.191 8.80923 76.0295V75.8704Z" fill="#143373"/>
<path d="M43.8216 182.73C73.9482 176.391 100.396 152.41 111.672 127.239C113.437 123.299 114.747 119.155 116.3 115.02C117.46 115.252 118.775 115.514 120.342 115.827C119.801 118.43 119.366 120.999 118.726 123.516C114.258 141.109 105.215 156.019 92.3184 168.714C81.1343 179.723 68.2357 187.897 53.2634 192.659C46.2915 194.877 39.1591 196.256 31.7673 195.585C23.0679 194.796 15.9261 191.086 10.5801 184.147C9.0144 182.115 7.61028 179.934 6.36249 177.682C6.16035 177.318 5.92654 176.797 5.70483 176.099C6.11916 176.346 6.2961 176.535 6.41472 176.614C12.7879 182.001 20.4376 183.656 28.4761 184.089C33.6073 184.365 38.6817 183.777 43.8216 182.73Z" fill="#183572"/>
<path d="M60.3638 23.8396C57.6514 25.2037 54.7363 26.5883 51.9027 27.9654C37.0754 35.1711 23.9687 44.728 12.6529 56.7277C11.4492 58.0042 10.1131 59.2805 8.81572 60.5747C8.81382 60.2564 8.82205 59.9201 8.81572 59.3597C8.81789 58.5234 8.82156 57.9112 8.81572 57.299C9.39477 46.9919 13.3999 38.3595 21.4067 31.7285C27.2216 26.9127 33.9468 24.3396 41.6171 23.8602C41.7548 23.8502 41.7644 23.8298 41.7644 23.8298C46.5335 23.83 51.3026 23.8301 56.2912 23.8389C57.4642 23.8434 58.4177 23.8394 59.3711 23.8354C59.9433 23.8396 59.9624 23.8396 60.3638 23.8396Z" fill="#143373"/>
<path d="M12.4562 58.1204C10.816 59.1786 12.2682 58.7441 10.6229 59.7944C10.0652 60.1504 9.40359 60.7737 8.81652 61.1858C8.81598 60.9958 8.82089 60.8158 8.81543 60.5729C10.1498 59.2268 11.4491 57.8971 12.6528 56.6206C23.9686 44.6209 37.0753 35.0639 51.9026 27.8583C54.7363 26.4812 57.5905 25.1464 60.4353 23.7922C65.3279 22.1937 70.1487 20.3055 75.1313 19.0698C81.4275 17.5082 87.8297 16.3227 94.2337 15.2613C101.026 14.1355 107.91 14.0048 114.786 14.1913C122.564 14.4023 130.279 15.2831 137.916 16.7618C141.194 17.3965 144.452 18.1637 147.677 19.0257C149.008 19.3813 149.484 18.8903 149.835 17.7763C151.236 13.3369 152.655 8.90289 154.091 4.47471C154.574 2.98437 155.13 1.51728 155.666 0C157.205 1.08067 184.577 45.9433 186.181 49.9751C183.271 51.0185 180.369 51.8389 177.373 52.9432C176.345 53.2511 175.382 53.6651 174.463 53.9734C166.645 56.5974 158.831 59.2309 151.023 61.8852C145.112 63.8949 139.212 65.9396 133.306 67.9671C133.055 68.0533 132.799 68.1229 132.274 68.2824C132.639 67.1854 132.941 66.2715 133.246 65.3589C135.362 59.0389 137.465 52.7146 139.611 46.4048C139.9 45.5532 139.692 45.2446 138.87 44.9245C131.95 42.2328 125.329 39.8549 118.048 38.4575C113.374 37.5605 108.078 36.7395 103.341 36.3819C97.86 35.9682 95.1206 35.9562 89.6189 36.0291C81.1612 36.1411 70.3898 37.2183 62.1258 39.0085C53.1267 40.9579 44.0078 43.7899 35.5435 47.4586C30.9837 49.435 26.4842 51.5541 21.9944 53.6865C19.915 54.6741 18.0255 55.4739 15.901 56.4723C17.3719 55.4277 18.7836 54.7492 20.407 53.9095C30.6108 48.6317 41.1392 44.1416 52.24 41.093C55.9709 40.0684 59.7007 38.9913 63.4915 38.2461C67.4057 37.4766 71.3846 37.0048 75.3517 36.5449C79.2322 36.0951 84.3759 35.8339 88.2753 35.709C94.4944 35.51 99.4845 35.3296 105.655 36.2987C111.55 37.2246 117.483 38.0421 123.279 39.4173C128.561 40.6706 133.693 42.5719 138.865 44.2657C140.485 44.7962 140.685 45.3625 140.11 47.0601C138.057 53.1151 135.966 59.157 133.905 65.209C133.729 65.7253 133.662 66.2786 133.544 66.8148C133.649 66.9349 133.753 67.055 133.857 67.1751C150.864 61.396 167.871 55.6168 185.15 49.7451C184.638 49.3214 184.489 49.1452 184.3 49.0503C177.803 45.791 171.383 42.3643 164.782 39.3303C156.124 35.3504 147.031 32.4914 137.816 30.1376C132.435 28.763 126.882 28.0649 121.417 27.0124C115.113 25.7985 108.717 25.7456 102.343 25.4541C100.281 25.3598 98.2022 25.5821 96.1333 25.697C93.304 25.8541 90.457 25.8943 87.6529 26.2571C82.2714 26.9534 76.8831 27.6747 71.5543 28.6848C60.5943 30.7623 50.1847 34.5754 40.1769 39.4315C35.4779 41.7115 30.8941 44.2711 26.4401 47.0011C22.6067 49.3508 19.476 52.2656 15.8469 54.9324C14.8972 55.6303 13.7656 56.542 12.7413 57.7336C14.0126 57.3909 11.6135 58.3476 12.4562 58.1204Z" fill="#FDC334"/>
<path d="M12.1413 59.0396C11.5682 59.3804 10.973 59.7741 10.427 60.1484C9.88096 60.5227 9.36605 60.8655 8.81543 61.1827C8.82374 60.7419 8.78331 60.8788 9.16036 60.5065C9.6817 59.9918 11.0484 58.7371 11.7567 58.0675C13.1734 56.7284 15.0559 55.2642 15.5308 54.9152C19.1598 52.2484 22.6067 49.3477 26.4401 46.998C30.894 44.268 35.4779 41.7084 40.1768 39.4283C50.1846 34.5723 60.5943 30.7591 71.5542 28.6817C76.883 27.6716 82.2713 26.9503 87.6528 26.254C90.457 25.8911 93.304 25.8509 96.1332 25.6938C98.2021 25.5789 100.281 25.3567 102.343 25.4509C108.717 25.7424 115.113 25.7954 121.416 27.0092C126.882 28.0618 132.435 28.7598 137.816 30.1345C147.031 32.4883 156.124 35.3472 164.782 39.3271C171.383 42.3611 177.803 45.7879 184.3 49.0471C184.489 49.142 185.679 49.5403 186.192 49.964C168.912 55.8357 149.255 62.6495 132.248 68.4286C132.318 68.2456 132.459 67.7042 132.587 67.3415C132.715 66.9788 133.157 65.6203 133.333 65.104C135.394 59.052 137.185 53.5502 139.238 47.4952C139.813 45.7976 140.213 45.3532 138.593 44.8227C133.421 43.1289 128.9 41.3464 123.618 40.0932C117.823 38.718 111.818 37.5604 105.859 36.8868C103.517 36.622 103.064 36.6714 99.9202 36.4527C97.8814 36.311 92.0217 36.2343 88.0735 36.3204C83.9352 36.4106 77.6834 36.7617 75.6741 37.0001C71.7063 37.4708 67.901 38.0513 63.8648 38.854C60.0623 39.6102 56.2544 40.5515 52.4217 41.5852C48.5889 42.6188 42.1485 44.7374 36.7044 46.9664C31.3392 49.1632 29.5109 50.2503 26.9527 51.4352C23.9851 52.8098 19.4685 54.881 15.8219 56.8781C14.6261 57.533 13.3718 58.3081 12.1413 59.0396Z" fill="#FAAA21"/>
<path d="M273.605 177V122.141L227.486 46.8254H256.496L286.25 96.6637L316.19 46.8254H345.201L299.082 121.955V177H273.605ZM371.333 179.232C360.175 179.232 351.497 176.752 345.298 171.793C339.223 166.834 336.186 159.829 336.186 150.779C336.186 140.861 339.471 133.423 346.042 128.463C352.736 123.38 362.097 120.839 374.122 120.839H396.066C395.198 115.136 393.401 110.797 390.673 107.822C387.946 104.722 384.04 103.172 378.957 103.172C374.99 103.172 371.395 104.04 368.171 105.776C364.948 107.512 362.221 110.177 359.989 113.772L338.417 106.334C340.153 102.367 342.694 98.5233 346.042 94.804C349.389 90.9608 353.728 87.8614 359.059 85.5059C364.514 83.0263 371.147 81.7866 378.957 81.7866C388.38 81.7866 396.19 83.5842 402.389 87.1795C408.712 90.7748 413.361 95.8578 416.336 102.429C419.435 108.875 420.923 116.562 420.799 125.488L420.241 177H397.368L396.996 166.214C394.64 170.429 391.293 173.653 386.954 175.884C382.739 178.116 377.532 179.232 371.333 179.232ZM375.424 158.776C379.391 158.776 382.987 157.846 386.21 155.986C389.433 154.126 391.975 151.709 393.834 148.734C395.694 145.758 396.624 142.659 396.624 139.435V139.063H382.677C374.618 139.063 369.039 140.055 365.94 142.039C362.841 143.898 361.291 146.564 361.291 150.035C361.291 152.763 362.531 154.932 365.01 156.544C367.49 158.032 370.961 158.776 375.424 158.776ZM478.672 179.232C468.382 179.232 460.571 176.69 455.24 171.607C450.033 166.524 447.43 159.271 447.43 149.849V104.846H432.367V84.0182H447.43V55.0078H471.977V84.0182H495.222V104.846H471.977V144.456C471.977 148.424 472.845 151.461 474.58 153.569C476.316 155.552 478.858 156.544 482.205 156.544C483.445 156.544 484.809 156.296 486.296 155.8C487.784 155.18 489.334 154.312 490.945 153.197L499.5 171.607C496.524 173.839 493.177 175.636 489.458 177C485.862 178.488 482.267 179.232 478.672 179.232ZM515.37 177V46.8254H539.918V95.9198C543.017 91.3327 546.86 87.8614 551.447 85.5059C556.035 83.0263 561.18 81.7866 566.882 81.7866C574.321 81.7866 580.582 83.2743 585.665 86.2497C590.872 89.2251 594.839 93.8742 597.566 100.197C600.294 106.396 601.658 114.454 601.658 124.372V177H577.11V129.393C577.11 123.071 576.367 118.173 574.879 114.702C573.391 111.231 571.346 108.751 568.742 107.264C566.139 105.652 563.101 104.846 559.63 104.846C553.307 104.722 548.41 106.644 544.939 110.611C541.591 114.578 539.918 120.467 539.918 128.278V177H515.37ZM621.242 177V84.0182H645.789V101.127C649.632 95.2999 654.467 90.9608 660.294 88.1093C666.245 85.1339 672.382 83.6462 678.705 83.6462V107.45C673.002 107.45 667.609 108.131 662.526 109.495C657.567 110.859 653.538 113.09 650.438 116.19C647.339 119.289 645.789 123.256 645.789 128.092V177H621.242ZM721.831 179.232C710.673 179.232 701.995 176.752 695.796 171.793C689.721 166.834 686.684 159.829 686.684 150.779C686.684 140.861 689.969 133.423 696.54 128.463C703.234 123.38 712.595 120.839 724.62 120.839H746.564C745.696 115.136 743.899 110.797 741.171 107.822C738.444 104.722 734.538 103.172 729.455 103.172C725.488 103.172 721.893 104.04 718.669 105.776C715.446 107.512 712.719 110.177 710.487 113.772L688.915 106.334C690.651 102.367 693.192 98.5233 696.54 94.804C699.887 90.9608 704.226 87.8614 709.557 85.5059C715.012 83.0263 721.645 81.7866 729.455 81.7866C738.878 81.7866 746.688 83.5842 752.887 87.1795C759.21 90.7748 763.859 95.8578 766.834 102.429C769.933 108.875 771.421 116.562 771.297 125.488L770.739 177H747.866L747.494 166.214C745.138 170.429 741.791 173.653 737.452 175.884C733.237 178.116 728.03 179.232 721.831 179.232ZM725.922 158.776C729.889 158.776 733.485 157.846 736.708 155.986C739.931 154.126 742.473 151.709 744.332 148.734C746.192 145.758 747.122 142.659 747.122 139.435V139.063H733.175C725.116 139.063 719.537 140.055 716.438 142.039C713.339 143.898 711.789 146.564 711.789 150.035C711.789 152.763 713.029 154.932 715.508 156.544C717.988 158.032 721.459 158.776 725.922 158.776Z" fill="#143373"/>
<path d="M854.833 179.232C841.567 179.232 829.79 176.38 819.5 170.677C809.334 164.85 801.337 156.916 795.51 146.874C789.683 136.708 786.77 125.054 786.77 111.913C786.77 98.7713 789.683 87.1795 795.51 77.1375C801.337 66.9715 809.334 59.037 819.5 53.3341C829.79 47.5073 841.567 44.5938 854.833 44.5938C862.767 44.5938 870.082 45.7716 876.776 48.1272C883.471 50.4827 889.36 53.768 894.443 57.9832C899.65 62.0744 903.989 66.7855 907.46 72.1165L886.632 85.1339C884.525 81.7866 881.735 78.8112 878.264 76.2077C874.917 73.6042 871.197 71.5586 867.106 70.0709C863.015 68.5832 858.924 67.8393 854.833 67.8393C846.65 67.8393 839.398 69.7609 833.075 73.6042C826.752 77.3235 821.793 82.4684 818.198 89.0392C814.603 95.6099 812.805 103.234 812.805 111.913C812.805 120.467 814.541 128.092 818.012 134.786C821.607 141.481 826.628 146.75 833.075 150.593C839.522 154.312 846.96 156.172 855.391 156.172C861.713 156.172 867.354 154.994 872.313 152.639C877.272 150.159 881.24 146.75 884.215 142.411C887.19 138.072 888.864 132.989 889.236 127.162H859.11V107.264H913.783V123.071C913.535 134.972 910.87 145.138 905.787 153.569C900.704 161.875 893.761 168.26 884.959 172.723C876.157 177.062 866.114 179.232 854.833 179.232ZM972.764 179.232C963.342 179.232 954.912 177.186 947.473 173.095C940.159 168.88 934.394 163.115 930.178 155.8C926.087 148.486 924.042 140.055 924.042 130.509C924.042 120.963 926.087 112.533 930.178 105.218C934.27 97.9034 939.973 92.2005 947.287 88.1093C954.602 83.8942 962.97 81.7866 972.392 81.7866C981.938 81.7866 990.369 83.8942 997.683 88.1093C1005 92.2005 1010.7 97.9034 1014.79 105.218C1018.88 112.533 1020.93 120.963 1020.93 130.509C1020.93 140.055 1018.88 148.486 1014.79 155.8C1010.7 163.115 1005 168.88 997.683 173.095C990.493 177.186 982.186 179.232 972.764 179.232ZM972.764 156.544C977.351 156.544 981.38 155.428 984.852 153.197C988.323 150.965 990.989 147.928 992.848 144.084C994.832 140.117 995.824 135.592 995.824 130.509C995.824 125.426 994.832 120.963 992.848 117.12C990.865 113.152 988.075 110.053 984.48 107.822C981.009 105.59 976.979 104.474 972.392 104.474C967.929 104.474 963.9 105.59 960.305 107.822C956.833 110.053 954.106 113.152 952.122 117.12C950.139 120.963 949.147 125.426 949.147 130.509C949.147 135.592 950.139 140.117 952.122 144.084C954.106 147.928 956.895 150.965 960.491 153.197C964.086 155.428 968.177 156.544 972.764 156.544Z" fill="#FDC334"/>
</svg>
