<svg width="1024" height="1024" viewBox="0 0 1024 1024" fill="none" xmlns="http://www.w3.org/2000/svg">
<path d="M102.646 405.212C102.646 399.553 102.561 394.801 102.646 388.236C102.616 377.559 102.712 368.002 102.646 358.445C102.66 352.11 102.643 345.774 102.646 338.786C102.634 338.133 102.646 338.189 102.646 338.189C102.663 337.326 102.616 335.548 102.646 333.927C106.058 331.59 108.628 329.125 111.334 327.397C119.319 322.3 128.087 318.211 136.007 313.052C138.685 311.464 141.523 309.901 142.016 309.882C152.367 304.577 157.91 301.789 168.002 296.997C189.792 286.648 209.881 276.947 232.011 267.356C273.089 249.552 316.947 236.275 360.621 226.814C400.727 218.127 442.101 213.831 483.147 213.288C509.847 212.934 535.956 212.876 562.555 214.883C585.545 216.619 608.687 220.719 631.37 225.072C666.707 231.854 700.586 241.529 734.167 254.592C738.16 256.145 738.819 258.575 737.414 262.708C727.001 293.328 716.794 324.019 706.526 354.689C705.043 359.118 703.579 363.553 701.809 368.877C704.353 368.103 705.6 367.765 706.818 367.347C735.478 357.508 764.11 347.585 792.8 337.832C830.691 324.951 868.781 311.43 906.722 298.696C911.18 297.199 918.765 294.334 923.325 293.141C923.309 305.601 923.293 320.695 923.306 333.156C923.467 491.497 922.782 649.879 923.026 808.219C923.08 843.206 917.313 876.602 898.666 906.568C867.786 956.193 822.729 984.084 764.263 985.069C674.468 986.582 584.628 985.491 494.807 985.489C494.233 985.489 493.659 985.263 492.736 985.069C608.147 884.751 669.924 759.853 668.975 604.879C680.072 608.034 690.738 610.955 701.332 614.112C711.783 617.227 722.162 620.583 732.745 623.886C728.085 610.193 685.359 549.032 653.558 514.639C622.928 481.513 590.646 450.373 552.253 426.252C552.806 441.433 554.136 456.23 553.741 470.98C552.331 523.554 536.035 571.766 509.212 616.608C468.664 684.394 411.904 735.401 344.199 774.872C306.979 796.57 267.586 812.873 224.976 820.484C187.759 827.131 150.73 828.179 114.603 814.477C78.9246 800.945 59.4303 772.303 61.099 736.123C61.9656 717.335 67.7408 699.946 76.6796 683.577C90.7863 657.743 109.226 635.158 129.789 614.281C138.253 605.687 147.345 597.712 156.777 588.906C158.093 587.546 158.784 586.734 159.475 585.923C161.005 583.852 161.151 583.442 158.647 585.128L155.471 587.636C139.615 601.089 123.777 614.564 107.871 627.959C106.434 629.168 104.014 631.348 102.646 632.537C102.488 620.953 102.746 607.622 102.646 596.959C102.689 534.373 102.564 471.787 102.646 408.334C102.611 406.875 102.646 406.767 102.646 405.984V405.212Z" fill="#143373"/>
<path d="M272.548 923.789C418.758 893.025 547.115 776.65 601.835 654.5C610.401 635.378 616.76 615.268 624.296 595.198C629.929 596.324 636.307 597.598 643.913 599.118C641.286 611.748 639.176 624.216 636.073 636.432C614.387 721.806 570.502 794.163 507.911 855.77C453.633 909.194 391.034 948.861 318.371 971.973C284.535 982.736 249.921 989.428 214.047 986.173C171.828 982.342 137.167 964.338 111.222 930.666C103.624 920.804 96.8094 910.217 90.7537 899.293C89.7727 897.523 88.638 894.997 87.562 891.61C89.5728 892.809 90.4315 893.722 91.0072 894.106C121.937 920.25 159.062 928.283 198.074 930.382C222.977 931.722 247.604 928.867 272.548 923.789Z" fill="#183572"/>
<path d="M352.843 152.662C339.68 159.282 325.505 166.022 311.753 172.705C239.794 207.673 176.185 254.051 121.268 312.284C115.426 318.479 108.942 324.672 102.645 330.953C102.636 329.408 102.676 327.776 102.645 325.057C102.656 320.999 102.674 318.028 102.645 315.057C105.456 265.038 124.893 223.146 163.751 190.966C191.972 167.596 224.611 155.109 261.836 152.782C262.523 152.739 262.551 152.656 262.551 152.656C285.696 152.657 308.841 152.637 333.051 152.679C338.744 152.701 343.371 152.682 347.999 152.662C349.292 152.734 350.908 152.543 352.843 152.662Z" fill="#143373"/>
<path d="M120.315 319.051C112.355 324.186 119.402 322.077 111.417 327.175C108.711 328.902 105.5 331.927 102.651 333.927C102.648 333.005 102.672 332.131 102.646 330.952C109.121 324.42 115.427 317.967 121.269 311.772C176.186 253.539 239.795 207.161 311.754 172.193C325.506 165.51 339.359 159.032 353.165 152.46C376.909 144.703 400.305 135.54 424.487 129.543C455.043 121.965 486.114 116.212 517.193 111.061C550.156 105.598 583.568 104.963 616.936 105.869C654.684 106.892 692.127 111.167 729.191 118.343C745.099 121.423 760.909 125.146 776.563 129.329C783.021 131.055 785.33 128.672 787.036 123.266C793.836 101.722 800.72 80.2046 807.69 58.7152C810.036 51.4828 812.73 44.3632 815.333 37C822.8 42.2443 955.644 259.957 963.426 279.523C949.303 284.586 935.223 288.567 920.683 293.927C915.693 295.421 911.016 297.43 906.558 298.926C868.618 311.66 830.692 324.44 792.801 337.321C764.111 347.074 735.479 356.996 706.819 366.836C705.601 367.254 704.354 367.592 701.81 368.366C703.579 363.042 705.044 358.607 706.527 354.178C716.795 323.508 727.001 292.817 737.415 262.197C738.82 258.064 737.811 256.566 733.818 255.013C700.237 241.95 668.105 230.411 632.769 223.629C610.086 219.276 584.381 215.292 561.391 213.557C534.792 211.549 521.497 211.491 494.797 211.845C453.751 212.388 401.475 217.616 361.369 226.303C317.695 235.763 273.439 249.507 232.361 267.311C210.232 276.902 188.395 287.186 166.605 297.534C156.513 302.326 147.344 306.208 137.033 311.053C144.171 305.984 151.023 302.691 158.901 298.616C208.422 273.003 259.518 251.213 313.391 236.419C331.498 231.447 349.599 226.22 367.997 222.603C386.993 218.869 406.303 216.58 425.556 214.348C444.389 212.165 469.352 210.897 488.277 210.291C518.459 209.325 542.677 208.45 572.622 213.153C601.23 217.646 630.028 221.614 658.155 228.287C683.789 234.369 708.693 243.596 733.795 251.816C741.657 254.39 742.628 257.138 739.836 265.376C729.875 294.761 719.728 324.081 709.723 353.451C708.87 355.956 708.544 358.642 707.974 361.244C708.48 361.826 708.986 362.409 709.493 362.992C792.03 334.947 874.568 306.901 958.426 278.407C955.937 276.35 955.217 275.495 954.299 275.035C922.768 259.218 891.61 242.588 859.576 227.865C817.555 208.551 773.427 194.677 728.707 183.254C702.59 176.583 675.643 173.196 649.116 168.088C618.524 162.197 587.482 161.94 556.548 160.525C546.541 160.068 536.453 161.147 526.412 161.704C512.682 162.467 498.865 162.662 485.256 164.422C459.138 167.801 432.988 171.302 407.127 176.204C353.936 186.285 303.417 204.79 254.847 228.356C232.043 239.421 209.797 251.842 188.181 265.09C169.577 276.493 154.383 290.638 136.771 303.58C132.161 306.967 126.669 311.391 121.698 317.174C127.868 315.51 116.225 320.153 120.315 319.051Z" fill="#FDC334"/>
<path d="M118.787 323.527C116.005 325.18 113.117 327.091 110.467 328.907C107.817 330.724 105.318 332.388 102.646 333.927C102.686 331.788 102.49 332.452 104.32 330.646C106.85 328.148 113.483 322.059 116.92 318.809C123.795 312.311 132.931 305.205 135.236 303.512C152.849 290.57 169.577 276.493 188.181 265.09C209.796 251.842 232.042 239.421 254.847 228.356C303.417 204.79 353.936 186.285 407.127 176.204C432.988 171.302 459.138 167.801 485.256 164.422C498.865 162.661 512.681 162.466 526.412 161.704C536.453 161.146 546.541 160.068 556.548 160.525C587.482 161.94 618.524 162.197 649.116 168.087C675.643 173.195 702.59 176.583 728.707 183.254C773.427 194.676 817.555 208.551 859.576 227.865C891.61 242.588 922.768 259.218 954.299 275.034C955.217 275.495 960.99 277.428 963.479 279.484C879.62 307.979 784.222 341.045 701.685 369.09C702.024 368.202 702.707 365.575 703.329 363.815C703.951 362.055 706.093 355.462 706.946 352.956C716.951 323.587 725.645 296.887 735.606 267.503C738.398 259.265 740.339 257.108 732.477 254.534C707.375 246.314 685.437 237.664 659.803 231.582C631.675 224.908 602.533 219.291 573.615 216.022C562.246 214.737 560.048 214.976 544.791 213.916C534.897 213.228 506.459 212.856 487.297 213.273C467.213 213.711 436.872 215.415 427.121 216.572C407.865 218.856 389.397 221.673 369.809 225.569C351.354 229.238 332.874 233.806 314.273 238.823C295.672 243.839 264.416 254.12 237.995 264.937C211.957 275.598 203.084 280.873 190.669 286.624C176.266 293.294 154.346 303.346 136.649 313.037C130.846 316.215 124.758 319.977 118.787 323.527Z" fill="#FAAA21"/>
</svg>
