<svg width="1024" height="1024" viewBox="0 0 1024 1024" fill="none" xmlns="http://www.w3.org/2000/svg">
<g clip-path="url(#clip0_419_243)">
<path d="M135 976.6V917.6L85.4 836.6H116.6L148.6 890.2L180.8 836.6H212L162.4 917.4V976.6H135ZM240.105 979C228.105 979 218.771 976.333 212.105 971C205.571 965.667 202.305 958.133 202.305 948.4C202.305 937.733 205.838 929.733 212.905 924.4C220.105 918.933 230.171 916.2 243.105 916.2H266.705C265.771 910.067 263.838 905.4 260.905 902.2C257.971 898.867 253.771 897.2 248.305 897.2C244.038 897.2 240.171 898.133 236.705 900C233.238 901.867 230.305 904.733 227.905 908.6L204.705 900.6C206.571 896.333 209.305 892.2 212.905 888.2C216.505 884.067 221.171 880.733 226.905 878.2C232.771 875.533 239.905 874.2 248.305 874.2C258.438 874.2 266.838 876.133 273.505 880C280.305 883.867 285.305 889.333 288.505 896.4C291.838 903.333 293.438 911.6 293.305 921.2L292.705 976.6H268.105L267.705 965C265.171 969.533 261.571 973 256.905 975.4C252.371 977.8 246.771 979 240.105 979ZM244.505 957C248.771 957 252.638 956 256.105 954C259.571 952 262.305 949.4 264.305 946.2C266.305 943 267.305 939.667 267.305 936.2V935.8H252.305C243.638 935.8 237.638 936.867 234.305 939C230.971 941 229.305 943.867 229.305 947.6C229.305 950.533 230.638 952.867 233.305 954.6C235.971 956.2 239.705 957 244.505 957ZM355.545 979C344.479 979 336.079 976.267 330.345 970.8C324.745 965.333 321.945 957.533 321.945 947.4V899H305.745V876.6H321.945V845.4H348.345V876.6H373.345V899H348.345V941.6C348.345 945.867 349.279 949.133 351.145 951.4C353.012 953.533 355.745 954.6 359.345 954.6C360.679 954.6 362.145 954.333 363.745 953.8C365.345 953.133 367.012 952.2 368.745 951L377.945 970.8C374.745 973.2 371.145 975.133 367.145 976.6C363.279 978.2 359.412 979 355.545 979ZM395.014 976.6V836.6H421.414V889.4C424.747 884.467 428.881 880.733 433.814 878.2C438.747 875.533 444.281 874.2 450.414 874.2C458.414 874.2 465.147 875.8 470.614 879C476.214 882.2 480.481 887.2 483.414 894C486.347 900.667 487.814 909.333 487.814 920V976.6H461.414V925.4C461.414 918.6 460.614 913.333 459.014 909.6C457.414 905.867 455.214 903.2 452.414 901.6C449.614 899.867 446.347 899 442.614 899C435.814 898.867 430.547 900.933 426.814 905.2C423.214 909.467 421.414 915.8 421.414 924.2V976.6H395.014ZM508.877 976.6V876.6H535.277V895C539.41 888.733 544.61 884.067 550.877 881C557.277 877.8 563.877 876.2 570.677 876.2V901.8C564.543 901.8 558.743 902.533 553.277 904C547.943 905.467 543.61 907.867 540.277 911.2C536.943 914.533 535.277 918.8 535.277 924V976.6H508.877ZM617.058 979C605.058 979 595.724 976.333 589.058 971C582.524 965.667 579.258 958.133 579.258 948.4C579.258 937.733 582.791 929.733 589.858 924.4C597.058 918.933 607.124 916.2 620.058 916.2H643.658C642.724 910.067 640.791 905.4 637.858 902.2C634.924 898.867 630.724 897.2 625.258 897.2C620.991 897.2 617.124 898.133 613.658 900C610.191 901.867 607.258 904.733 604.858 908.6L581.658 900.6C583.524 896.333 586.258 892.2 589.858 888.2C593.458 884.067 598.124 880.733 603.858 878.2C609.724 875.533 616.858 874.2 625.258 874.2C635.391 874.2 643.791 876.133 650.458 880C657.258 883.867 662.258 889.333 665.458 896.4C668.791 903.333 670.391 911.6 670.258 921.2L669.658 976.6H645.058L644.658 965C642.124 969.533 638.524 973 633.858 975.4C629.324 977.8 623.724 979 617.058 979ZM621.458 957C625.724 957 629.591 956 633.058 954C636.524 952 639.258 949.4 641.258 946.2C643.258 943 644.258 939.667 644.258 936.2V935.8H629.258C620.591 935.8 614.591 936.867 611.258 939C607.924 941 606.258 943.867 606.258 947.6C606.258 950.533 607.591 952.867 610.258 954.6C612.924 956.2 616.658 957 621.458 957Z" fill="#143373"/>
<path d="M760.098 979C745.832 979 733.165 975.933 722.098 969.8C711.165 963.533 702.565 955 696.298 944.2C690.032 933.267 686.898 920.733 686.898 906.6C686.898 892.467 690.032 880 696.298 869.2C702.565 858.267 711.165 849.733 722.098 843.6C733.165 837.333 745.832 834.2 760.098 834.2C768.632 834.2 776.498 835.467 783.698 838C790.898 840.533 797.232 844.067 802.698 848.6C808.298 853 812.965 858.067 816.698 863.8L794.298 877.8C792.032 874.2 789.032 871 785.298 868.2C781.698 865.4 777.698 863.2 773.298 861.6C768.898 860 764.498 859.2 760.098 859.2C751.298 859.2 743.498 861.267 736.698 865.4C729.898 869.4 724.565 874.933 720.698 882C716.832 889.067 714.898 897.267 714.898 906.6C714.898 915.8 716.765 924 720.498 931.2C724.365 938.4 729.765 944.067 736.698 948.2C743.632 952.2 751.632 954.2 760.698 954.2C767.498 954.2 773.565 952.933 778.898 950.4C784.232 947.733 788.498 944.067 791.698 939.4C794.898 934.733 796.698 929.267 797.098 923H764.698V901.6H823.498V918.6C823.232 931.4 820.365 942.333 814.898 951.4C809.432 960.333 801.965 967.2 792.498 972C783.032 976.667 772.232 979 760.098 979ZM886.931 979C876.798 979 867.731 976.8 859.731 972.4C851.865 967.867 845.665 961.667 841.131 953.8C836.731 945.933 834.531 936.867 834.531 926.6C834.531 916.333 836.731 907.267 841.131 899.4C845.531 891.533 851.665 885.4 859.531 881C867.398 876.467 876.398 874.2 886.531 874.2C896.798 874.2 905.865 876.467 913.731 881C921.598 885.4 927.731 891.533 932.131 899.4C936.531 907.267 938.731 916.333 938.731 926.6C938.731 936.867 936.531 945.933 932.131 953.8C927.731 961.667 921.598 967.867 913.731 972.4C905.998 976.8 897.065 979 886.931 979ZM886.931 954.6C891.865 954.6 896.198 953.4 899.931 951C903.665 948.6 906.531 945.333 908.531 941.2C910.665 936.933 911.731 932.067 911.731 926.6C911.731 921.133 910.665 916.333 908.531 912.2C906.398 907.933 903.398 904.6 899.531 902.2C895.798 899.8 891.465 898.6 886.531 898.6C881.731 898.6 877.398 899.8 873.531 902.2C869.798 904.6 866.865 907.933 864.731 912.2C862.598 916.333 861.531 921.133 861.531 926.6C861.531 932.067 862.598 936.933 864.731 941.2C866.865 945.333 869.865 948.6 873.731 951C877.598 953.4 881.998 954.6 886.931 954.6Z" fill="#FDC334"/>
<path d="M211.787 307.206C211.787 303.023 211.724 299.51 211.787 294.656C211.765 286.763 211.836 279.698 211.787 272.633C211.798 267.95 211.785 263.266 211.787 258.1C211.778 257.617 211.787 257.659 211.787 257.659C211.8 257.02 211.765 255.706 211.787 254.508C214.31 252.78 216.209 250.958 218.21 249.681C224.113 245.913 230.595 242.889 236.45 239.076C238.43 237.902 240.528 236.747 240.892 236.732C248.545 232.811 252.642 230.75 260.103 227.206C276.211 219.556 291.063 212.384 307.422 205.294C337.79 192.132 370.212 182.317 402.499 175.323C432.148 168.901 462.734 165.725 493.078 165.324C512.817 165.062 532.119 165.019 551.782 166.503C568.778 167.786 585.886 170.817 602.654 174.035C628.778 179.049 653.823 186.202 678.648 195.858C681.601 197.007 682.088 198.803 681.049 201.858C673.351 224.495 665.806 247.184 658.215 269.857C657.119 273.131 656.036 276.409 654.728 280.345C656.609 279.773 657.53 279.523 658.43 279.214C679.618 271.94 700.785 264.605 721.994 257.395C750.006 247.872 778.164 237.876 806.212 228.463C809.508 227.356 815.116 225.238 818.486 224.356C818.475 233.567 818.463 244.726 818.473 253.938C818.591 370.994 818.085 488.08 818.266 605.135C818.305 631 814.042 655.688 800.257 677.841C777.428 714.527 744.119 735.146 700.898 735.874C634.515 736.993 568.1 736.186 501.698 736.185C501.274 736.185 500.85 736.018 500.167 735.874C585.486 661.713 631.156 569.38 630.454 454.813C638.658 457.146 646.543 459.305 654.375 461.639C662.101 463.942 669.774 466.422 677.597 468.865C674.153 458.742 642.567 413.527 619.057 388.102C596.414 363.613 572.549 340.593 544.166 322.761C544.575 333.984 545.558 344.922 545.266 355.826C544.224 394.693 532.176 430.334 512.347 463.484C482.372 513.596 440.411 551.303 390.359 580.483C362.843 596.524 333.722 608.576 302.221 614.202C274.709 619.116 247.334 619.891 220.627 609.761C194.251 599.758 179.84 578.584 181.073 551.837C181.714 537.948 185.983 525.093 192.591 512.992C203.02 493.894 216.652 477.198 231.853 461.763C238.11 455.41 244.832 449.515 251.805 443.005C252.778 441.999 253.288 441.399 253.799 440.8C254.93 439.269 255.038 438.965 253.187 440.212L250.839 442.066C239.117 452.011 227.409 461.973 215.65 471.875C214.588 472.769 212.798 474.381 211.787 475.26C211.671 466.696 211.861 456.841 211.787 448.958C211.82 402.69 211.727 356.423 211.787 309.515C211.762 308.436 211.787 308.356 211.787 307.777V307.206Z" fill="#143373"/>
<path d="M337.391 690.572C445.478 667.829 540.368 581.797 580.821 491.495C587.153 477.36 591.854 462.493 597.425 447.656C601.59 448.488 606.305 449.43 611.927 450.554C609.985 459.891 608.426 469.108 606.132 478.138C590.1 541.252 557.657 594.744 511.386 640.287C471.26 679.782 424.983 709.106 371.266 726.193C346.252 734.149 320.663 739.096 294.143 736.69C262.931 733.858 237.308 720.548 218.128 695.655C212.511 688.365 207.473 680.538 202.996 672.462C202.271 671.154 201.432 669.287 200.637 666.783C202.123 667.669 202.758 668.344 203.184 668.628C226.049 687.955 253.494 693.894 282.335 695.446C300.744 696.436 318.95 694.325 337.391 690.572Z" fill="#183572"/>
<path d="M396.75 120.505C387.018 125.398 376.54 130.381 366.373 135.321C313.176 161.172 266.152 195.458 225.554 238.508C221.236 243.087 216.442 247.666 211.787 252.309C211.78 251.167 211.81 249.96 211.787 247.95C211.795 244.95 211.808 242.753 211.787 240.557C213.865 203.58 228.234 172.611 256.961 148.821C277.823 131.544 301.952 122.313 329.471 120.593C329.979 120.562 330 120.5 330 120.5C347.11 120.501 364.22 120.486 382.118 120.517C386.327 120.533 389.747 120.519 393.168 120.505C394.124 120.558 395.319 120.416 396.75 120.505Z" fill="#143373"/>
<path d="M224.85 243.51C218.965 247.307 224.175 245.748 218.272 249.516C216.271 250.793 213.897 253.029 211.791 254.508C211.789 253.826 211.807 253.18 211.787 252.309C216.574 247.479 221.236 242.709 225.555 238.13C266.153 195.08 313.177 160.794 366.374 134.943C376.54 130.003 386.781 125.214 396.987 120.356C414.541 114.621 431.836 107.847 449.713 103.414C472.302 97.8116 495.272 93.5586 518.248 89.7506C542.616 85.712 567.316 85.2429 591.984 85.9121C619.89 86.669 647.57 89.8289 674.97 95.134C686.73 97.411 698.418 100.163 709.991 103.256C714.764 104.531 716.471 102.77 717.733 98.7736C722.76 82.847 727.849 66.9396 733.002 51.0533C734.736 45.7066 736.728 40.4433 738.652 35C744.172 38.8769 842.379 199.824 848.132 214.289C837.691 218.032 827.282 220.975 816.533 224.937C812.845 226.041 809.387 227.526 806.091 228.633C778.043 238.046 750.006 247.494 721.995 257.017C700.786 264.227 679.619 271.562 658.431 278.836C657.531 279.145 656.609 279.395 654.728 279.967C656.036 276.031 657.119 272.753 658.215 269.479C665.806 246.805 673.351 224.117 681.05 201.48C682.089 198.425 681.343 197.317 678.391 196.169C653.565 186.512 629.812 177.982 603.689 172.968C586.92 169.75 567.917 166.805 550.921 165.522C531.258 164.038 521.43 163.995 501.691 164.256C471.347 164.658 432.701 168.523 403.052 174.945C370.765 181.939 338.049 192.099 307.681 205.26C291.322 212.351 275.179 219.953 259.07 227.603C251.61 231.147 244.831 234.016 237.208 237.597C242.486 233.85 247.551 231.416 253.375 228.403C289.984 209.469 327.757 193.36 367.584 182.423C380.97 178.748 394.351 174.883 407.952 172.21C421.995 169.45 436.271 167.757 450.504 166.107C464.426 164.493 482.88 163.556 496.871 163.108C519.183 162.394 537.087 161.747 559.224 165.224C580.373 168.545 601.662 171.478 622.456 176.412C641.406 180.908 659.817 187.729 678.374 193.806C684.186 195.709 684.904 197.741 682.839 203.831C675.476 225.553 667.975 247.229 660.578 268.941C659.947 270.793 659.707 272.778 659.285 274.702C659.659 275.133 660.034 275.564 660.408 275.995C721.425 255.262 782.442 234.528 844.436 213.464C842.595 211.943 842.063 211.311 841.384 210.971C818.075 199.278 795.041 186.984 771.359 176.1C740.295 161.821 707.672 151.565 674.613 143.12C655.305 138.189 635.384 135.685 615.773 131.908C593.158 127.554 570.21 127.364 547.341 126.318C539.943 125.98 532.486 126.777 525.063 127.189C514.912 127.753 504.698 127.897 494.637 129.199C475.33 131.697 455.998 134.285 436.879 137.908C397.558 145.361 360.21 159.041 324.305 176.463C307.446 184.643 291 193.825 275.02 203.619C261.267 212.049 250.035 222.506 237.015 232.073C233.607 234.577 229.547 237.848 225.872 242.123C230.433 240.893 221.826 244.325 224.85 243.51Z" fill="#FDC334"/>
<path d="M223.72 246.819C221.663 248.042 219.528 249.454 217.569 250.797C215.61 252.14 213.763 253.37 211.787 254.508C211.817 252.926 211.672 253.417 213.025 252.082C214.895 250.235 219.799 245.734 222.34 243.332C227.422 238.527 234.176 233.275 235.88 232.023C248.9 222.455 261.267 212.049 275.02 203.619C291 193.825 307.446 184.642 324.305 176.463C360.21 159.041 397.557 145.361 436.879 137.908C455.998 134.285 475.33 131.697 494.637 129.199C504.698 127.897 514.912 127.753 525.063 127.189C532.486 126.777 539.943 125.98 547.341 126.318C570.21 127.364 593.158 127.554 615.773 131.908C635.384 135.685 655.305 138.189 674.613 143.12C707.672 151.565 740.295 161.821 771.359 176.1C795.041 186.984 818.075 199.278 841.384 210.971C842.063 211.311 846.331 212.74 848.171 214.26C786.177 235.325 715.653 259.77 654.636 280.503C654.887 279.846 655.391 277.904 655.851 276.603C656.311 275.302 657.894 270.428 658.526 268.575C665.922 246.864 672.349 227.125 679.712 205.403C681.777 199.313 683.211 197.718 677.399 195.815C658.843 189.739 642.624 183.344 623.674 178.848C602.88 173.914 581.336 169.761 559.958 167.345C551.554 166.395 549.929 166.572 538.65 165.788C531.335 165.279 510.312 165.004 496.147 165.313C481.299 165.636 458.869 166.896 451.66 167.751C437.425 169.44 423.772 171.523 409.292 174.402C395.649 177.115 381.987 180.492 368.236 184.2C354.485 187.909 331.378 195.509 311.846 203.506C292.597 211.387 286.038 215.287 276.859 219.538C266.212 224.469 250.008 231.9 236.925 239.065C232.635 241.414 228.134 244.195 223.72 246.819Z" fill="#FAAA21"/>
</g>
<defs>
<clipPath id="clip0_419_243">
<rect width="1024" height="1024" fill="white"/>
</clipPath>
</defs>
</svg>
